<svg xmlns="http://www.w3.org/2000/svg" xmlns:xlink="http://www.w3.org/1999/xlink" width="500" zoomAndPan="magnify" viewBox="0 0 375 374.999991" height="500" preserveAspectRatio="xMidYMid meet" version="1.0"><defs><g/><clipPath id="c48eb7cd08"><path d="M 69 69 L 306 69 L 306 306 L 69 306 Z M 69 69 " clip-rule="nonzero"/></clipPath><clipPath id="7751afdd60"><path d="M 97.394531 46.242188 L 328.757812 97.398438 L 277.601562 328.757812 L 46.242188 277.605469 Z M 97.394531 46.242188 " clip-rule="nonzero"/></clipPath><clipPath id="37dadc4fc6"><path d="M 213.074219 71.820312 C 149.1875 57.695312 85.945312 98.035156 71.820312 161.921875 C 57.691406 225.8125 98.035156 289.054688 161.921875 303.179688 C 225.8125 317.308594 289.054688 276.964844 303.179688 213.078125 C 317.304688 149.1875 276.964844 85.945312 213.074219 71.820312 Z M 213.074219 71.820312 " clip-rule="nonzero"/></clipPath><clipPath id="6f1a6f9ae9"><path d="M 76 74 L 299 74 L 299 301 L 76 301 Z M 76 74 " clip-rule="nonzero"/></clipPath><clipPath id="e7d0b38996"><path d="M 302.644531 296.542969 L 80.789062 304.519531 L 72.652344 78.164062 L 294.507812 70.191406 Z M 302.644531 296.542969 " clip-rule="nonzero"/></clipPath><clipPath id="e544bbc0b3"><path d="M 302.644531 296.542969 L 80.789062 304.519531 L 72.652344 78.164062 L 294.507812 70.191406 Z M 302.644531 296.542969 " clip-rule="nonzero"/></clipPath><clipPath id="dc28019010"><path d="M 82 82 L 293 82 L 293 293 L 82 293 Z M 82 82 " clip-rule="nonzero"/></clipPath><clipPath id="34e346cc92"><path d="M 71.148438 279.058594 L 95.933594 71.140625 L 303.851562 95.925781 L 279.066406 303.84375 Z M 71.148438 279.058594 " clip-rule="nonzero"/></clipPath><clipPath id="71694231b8"><path d="M 83.542969 175.097656 C 76.699219 232.511719 117.695312 284.605469 175.109375 291.449219 C 232.523438 298.292969 284.613281 257.296875 291.457031 199.882812 C 298.300781 142.46875 257.308594 90.378906 199.894531 83.535156 C 142.480469 76.691406 90.386719 117.683594 83.542969 175.097656 Z M 83.542969 175.097656 " clip-rule="nonzero"/></clipPath></defs><rect x="-37.5" width="450" fill="#ffffff" y="-37.499999" height="449.999989" fill-opacity="1"/><rect x="-37.5" width="450" fill="#0b0019" y="-37.499999" height="449.999989" fill-opacity="1"/><g clip-path="url(#c48eb7cd08)"><g clip-path="url(#7751afdd60)"><g clip-path="url(#37dadc4fc6)"><path fill="#fdf9f7" d="M 97.394531 46.242188 L 328.757812 97.398438 L 277.601562 328.757812 L 46.242188 277.605469 Z M 97.394531 46.242188 " fill-opacity="1" fill-rule="nonzero"/></g></g></g><g clip-path="url(#6f1a6f9ae9)"><g clip-path="url(#e7d0b38996)"><g clip-path="url(#e544bbc0b3)"><path fill="#0b0019" d="M 298.128906 178.902344 C 299.089844 197.867188 295.035156 215.832031 287.089844 232.953125 C 282.824219 242.136719 277.335938 250.566406 270.839844 258.375 C 260.804688 270.445312 248.882812 280.140625 235.023438 287.457031 C 225 292.75 214.398438 296.519531 203.234375 298.445312 C 197.027344 299.515625 190.730469 300.5625 184.386719 300.230469 C 180.105469 300 175.816406 299.925781 171.527344 299.542969 C 159.558594 298.484375 148.339844 295.058594 137.535156 290.046875 C 129.515625 286.324219 122.214844 281.457031 115.363281 275.875 C 110.839844 272.1875 106.804688 268.039062 103 263.640625 C 101.945312 262.421875 101.816406 260.949219 102.785156 260.179688 C 104.015625 259.207031 105.183594 259.5 106.207031 260.59375 C 108.292969 262.820312 110.324219 265.085938 112.515625 267.214844 C 124.800781 279.171875 139.191406 287.441406 155.691406 292.039062 C 162.136719 293.832031 168.679688 294.996094 175.382812 295.425781 C 178.886719 295.648438 182.402344 295.894531 185.890625 295.890625 C 189.617188 295.890625 193.363281 295.363281 197.078125 294.875 C 204.289062 293.921875 211.359375 292.292969 218.21875 289.859375 C 229.867188 285.726562 240.585938 279.914062 250.285156 272.191406 C 255.902344 267.71875 261.175781 262.898438 265.855469 257.46875 C 274.460938 247.480469 281.203125 236.34375 286.023438 224.058594 C 288.90625 216.714844 290.980469 209.164062 292.292969 201.386719 C 292.824219 198.246094 293.082031 195.082031 293.453125 191.929688 C 294.390625 183.96875 294.179688 175.992188 292.996094 168.152344 C 291.335938 157.203125 288.277344 146.578125 283.382812 136.546875 C 279.554688 128.699219 274.910156 121.390625 269.269531 114.738281 C 262.628906 106.90625 254.992188 100.226562 246.28125 94.738281 C 234.96875 87.613281 222.773438 82.898438 209.613281 80.582031 C 200.882812 79.046875 192.082031 78.417969 183.28125 79.265625 C 167.277344 80.808594 152.167969 85.429688 138.222656 93.535156 C 129.152344 98.808594 120.984375 105.210938 113.636719 112.742188 C 103.285156 123.347656 95.433594 135.523438 89.75 149.140625 C 85.617188 159.046875 83.019531 169.390625 81.921875 180.058594 C 81.402344 185.105469 81.125 190.203125 81.34375 195.289062 C 81.863281 207.355469 83.964844 219.121094 88.386719 230.414062 C 88.664062 231.125 88.992188 231.828125 89.164062 232.5625 C 89.394531 233.527344 89.308594 234.617188 88.222656 234.882812 C 87.214844 235.128906 85.929688 235.792969 85.167969 234.234375 C 83.976562 231.800781 83.070312 229.25 82.269531 226.683594 C 80.261719 220.265625 78.589844 213.753906 77.84375 207.046875 C 77.058594 200.011719 76.5 192.921875 76.921875 185.871094 C 78.167969 165.007812 84.359375 145.65625 95.683594 128.023438 C 100.363281 120.746094 105.757812 114.003906 111.9375 107.960938 C 123.253906 96.894531 136.191406 88.242188 150.972656 82.414062 C 158.035156 79.632812 165.292969 77.574219 172.726562 76.160156 C 180.535156 74.671875 188.492188 74.265625 196.378906 74.558594 C 210.386719 75.082031 223.847656 78.367188 236.59375 84.285156 C 244.980469 88.175781 252.734375 93.097656 259.820312 99.066406 C 277.140625 113.652344 288.546875 131.996094 294.527344 153.753906 C 295.660156 157.863281 296.410156 162.089844 297.1875 166.285156 C 297.945312 170.445312 297.941406 174.683594 298.128906 178.902344 Z M 298.128906 178.902344 " fill-opacity="1" fill-rule="nonzero"/></g></g></g><g clip-path="url(#dc28019010)"><g clip-path="url(#34e346cc92)"><g clip-path="url(#71694231b8)"><path fill="#ffcc00" d="M 71.148438 279.058594 L 95.933594 71.140625 L 303.851562 95.925781 L 279.066406 303.84375 Z M 71.148438 279.058594 " fill-opacity="1" fill-rule="nonzero"/></g></g></g><g fill="#0b0019" fill-opacity="1"><g transform="translate(118.886981, 193.369931)"><g><path d="M 39.5625 -5.09375 C 38.65625 -4.976562 37.613281 -4.984375 36.4375 -5.109375 C 35.269531 -5.234375 34.203125 -5.582031 33.234375 -6.15625 C 32.085938 -6.75 31.117188 -7.960938 30.328125 -9.796875 L 29.96875 -10.859375 C 29.28125 -13.078125 28.4375 -17.441406 27.4375 -23.953125 C 25.375 -14.015625 23.175781 -7.585938 20.84375 -4.671875 C 19.664062 -3.265625 18.085938 -2.4375 16.109375 -2.1875 C 14.484375 -1.988281 12.738281 -2.375 10.875 -3.34375 C 9.6875 -3.90625 8.734375 -5.125 8.015625 -7 C 7.816406 -7.488281 7.628906 -8.023438 7.453125 -8.609375 C 6.753906 -10.804688 5.875 -15.066406 4.8125 -21.390625 C 4.132812 -25.484375 3.367188 -29.484375 2.515625 -33.390625 C 2.117188 -35.304688 1.671875 -37.054688 1.171875 -38.640625 C 0.660156 -40.335938 0.21875 -41.578125 -0.15625 -42.359375 L -0.640625 -42.296875 C 1.503906 -42.566406 3.601562 -42.519531 5.65625 -42.15625 C 7.71875 -41.800781 9.085938 -41.21875 9.765625 -40.40625 C 10.222656 -39.6875 10.613281 -38.78125 10.9375 -37.6875 C 11.625 -35.46875 12.1875 -31.53125 12.625 -25.875 C 12.875 -23.113281 13.1875 -20.328125 13.5625 -17.515625 C 13.9375 -14.710938 14.660156 -11.46875 15.734375 -7.78125 C 18.285156 -12.5 19.988281 -16.945312 20.84375 -21.125 C 21.695312 -25.3125 22.195312 -29.515625 22.34375 -33.734375 C 22.5 -37.953125 22.53125 -41.769531 22.4375 -45.1875 L 22.046875 -45.140625 C 24.242188 -45.410156 26.300781 -45.363281 28.21875 -45 C 30.132812 -44.632812 31.425781 -44.035156 32.09375 -43.203125 C 32.519531 -42.503906 32.910156 -41.609375 33.265625 -40.515625 C 33.898438 -38.453125 34.460938 -34.523438 34.953125 -28.734375 C 35.191406 -26.023438 35.492188 -23.296875 35.859375 -20.546875 C 36.222656 -17.804688 36.914062 -14.578125 37.9375 -10.859375 C 40.582031 -15.804688 42.378906 -20.351562 43.328125 -24.5 C 44.273438 -28.644531 44.84375 -32.78125 45.03125 -36.90625 C 45.226562 -41.03125 45.269531 -44.816406 45.15625 -48.265625 L 44.59375 -48.203125 C 45.425781 -48.304688 46.675781 -48.101562 48.34375 -47.59375 C 50.019531 -47.082031 51.566406 -46.320312 52.984375 -45.3125 C 54.035156 -44.613281 54.679688 -43.816406 54.921875 -42.921875 C 54.992188 -42.703125 55.046875 -42.488281 55.078125 -42.28125 C 54.722656 -34.851562 53.578125 -27.828125 51.640625 -21.203125 C 49.703125 -14.578125 47.679688 -10.113281 45.578125 -7.8125 C 44.015625 -6.3125 42.007812 -5.40625 39.5625 -5.09375 Z M 39.5625 -5.09375 "/></g></g></g><g fill="#0b0019" fill-opacity="1"><g transform="translate(172.600472, 186.63893)"><g><path d="M 13.09375 -6.515625 C 14.40625 -6.785156 15.53125 -7.503906 16.46875 -8.671875 C 17.40625 -9.847656 18.140625 -11.164062 18.671875 -12.625 C 19.203125 -14.082031 19.554688 -15.390625 19.734375 -16.546875 C 19.921875 -17.710938 19.984375 -18.914062 19.921875 -20.15625 C 19.859375 -21.394531 19.671875 -22.550781 19.359375 -23.625 C 18.984375 -24.738281 18.453125 -25.660156 17.765625 -26.390625 C 17.078125 -27.128906 16.179688 -27.429688 15.078125 -27.296875 C 13.710938 -27.046875 12.5625 -26.351562 11.625 -25.21875 C 10.6875 -24.082031 9.929688 -22.789062 9.359375 -21.34375 C 8.796875 -19.90625 8.425781 -18.609375 8.25 -17.453125 C 8.082031 -16.296875 8.035156 -15.101562 8.109375 -13.875 C 8.179688 -12.65625 8.375 -11.53125 8.6875 -10.5 L 8.984375 -9.59375 C 9.179688 -8.9375 9.632812 -8.222656 10.34375 -7.453125 C 11.050781 -6.679688 11.96875 -6.367188 13.09375 -6.515625 Z M 12.46875 -1.765625 L 11.828125 -1.6875 C 9.617188 -1.414062 7.59375 -1.734375 5.75 -2.640625 C 3.914062 -3.554688 2.425781 -5.015625 1.28125 -7.015625 C 0.769531 -7.867188 0.351562 -8.800781 0.03125 -9.8125 C -0.363281 -11.132812 -0.59375 -12.582031 -0.65625 -14.15625 C -0.738281 -16.957031 -0.140625 -19.632812 1.140625 -22.1875 C 2.421875 -24.738281 4.289062 -26.910156 6.75 -28.703125 C 9.207031 -30.503906 12.242188 -31.628906 15.859375 -32.078125 C 19.335938 -32.515625 22.28125 -31.613281 24.6875 -29.375 C 26.269531 -27.914062 27.394531 -26.085938 28.0625 -23.890625 C 29.113281 -20.484375 29.03125 -17.078125 27.8125 -13.671875 C 27.09375 -11.671875 26.03125 -9.832031 24.625 -8.15625 C 23.226562 -6.488281 21.5 -5.085938 19.4375 -3.953125 C 17.382812 -2.816406 15.0625 -2.085938 12.46875 -1.765625 Z M 12.46875 -1.765625 "/></g></g></g><g fill="#0b0019" fill-opacity="1"><g transform="translate(203.523461, 182.763876)"><g><path d="M 6.3125 -0.828125 C 5.53125 -0.722656 4.445312 -0.769531 3.0625 -0.96875 C 1.675781 -1.164062 0.609375 -2.410156 -0.140625 -4.703125 C -0.546875 -6.117188 -0.671875 -7.894531 -0.515625 -10.03125 C -0.359375 -12.175781 -0.125 -14.472656 0.1875 -16.921875 C 0.5625 -19.566406 0.820312 -22.125 0.96875 -24.59375 C 1.113281 -27.070312 0.992188 -28.945312 0.609375 -30.21875 C 2.515625 -30.363281 4.351562 -30.21875 6.125 -29.78125 C 7.894531 -29.351562 9.273438 -28.378906 10.265625 -26.859375 C 11.753906 -30.054688 13.660156 -31.800781 15.984375 -32.09375 L 16.421875 -32.15625 C 18.035156 -32.351562 19.4375 -32.125 20.625 -31.46875 C 21.820312 -30.820312 22.695312 -29.769531 23.25 -28.3125 L 23.265625 -28.265625 C 23.609375 -27.078125 23.554688 -25.9375 23.109375 -24.84375 C 22.660156 -23.757812 22.019531 -22.789062 21.1875 -21.9375 C 20.351562 -21.082031 19.570312 -20.453125 18.84375 -20.046875 C 18.488281 -19.859375 18.242188 -19.753906 18.109375 -19.734375 C 18.335938 -19.765625 18.53125 -19.628906 18.6875 -19.328125 L 18.546875 -19.734375 C 18.273438 -20.710938 17.785156 -21.640625 17.078125 -22.515625 C 16.023438 -23.804688 14.78125 -24.359375 13.34375 -24.171875 C 11.914062 -23.878906 10.867188 -22.71875 10.203125 -20.6875 C 9.535156 -18.664062 9.144531 -16.367188 9.03125 -13.796875 C 8.925781 -11.234375 9.035156 -8.820312 9.359375 -6.5625 C 9.535156 -5.394531 9.753906 -4.394531 10.015625 -3.5625 C 10.253906 -2.738281 10.414062 -2.285156 10.5 -2.203125 C 9.21875 -1.472656 7.820312 -1.015625 6.3125 -0.828125 Z M 6.3125 -0.828125 "/></g></g></g><g fill="#0b0019" fill-opacity="1"><g transform="translate(226.336061, 179.90516)"><g><path d="M 22.578125 -1.53125 C 21.179688 -1.351562 19.984375 -1.507812 18.984375 -2 C 17.128906 -3.144531 15.585938 -4.660156 14.359375 -6.546875 C 13.140625 -8.441406 12.113281 -10.296875 11.28125 -12.109375 L 9.328125 -16.15625 C 8.878906 -10.101562 8.960938 -6.03125 9.578125 -3.9375 C 9.878906 -3 10.125 -2.414062 10.3125 -2.1875 C 9.03125 -1.445312 7.628906 -0.984375 6.109375 -0.796875 C 5.335938 -0.703125 4.265625 -0.753906 2.890625 -0.953125 C 1.515625 -1.148438 0.445312 -2.394531 -0.3125 -4.6875 C -0.644531 -5.863281 -0.738281 -7.554688 -0.59375 -9.765625 C -0.445312 -11.972656 -0.191406 -14.515625 0.171875 -17.390625 C 0.710938 -21.484375 1.082031 -25.800781 1.28125 -30.34375 C 1.476562 -34.894531 1.15625 -38.882812 0.3125 -42.3125 C 1.425781 -42.414062 2.722656 -42.382812 4.203125 -42.21875 C 5.691406 -42.050781 6.910156 -41.78125 7.859375 -41.40625 C 8.804688 -41.03125 9.332031 -40.644531 9.4375 -40.25 C 10.238281 -37.570312 10.601562 -34.535156 10.53125 -31.140625 C 10.457031 -27.742188 10.128906 -23.617188 9.546875 -18.765625 C 12.453125 -21.234375 14.5 -23.429688 15.6875 -25.359375 C 16.875 -27.296875 17.953125 -29.519531 18.921875 -32.03125 C 19.734375 -31.84375 20.796875 -31.21875 22.109375 -30.15625 C 23.421875 -29.101562 24.382812 -27.890625 25 -26.515625 C 25.082031 -26.304688 25.15625 -26.125 25.21875 -25.96875 C 25.53125 -24.914062 25.359375 -23.914062 24.703125 -22.96875 C 23.003906 -20.570312 20.226562 -18.523438 16.375 -16.828125 C 17.675781 -14.160156 19.578125 -11.878906 22.078125 -9.984375 C 24.578125 -8.097656 27.160156 -6.972656 29.828125 -6.609375 C 29.941406 -5.734375 29.382812 -4.816406 28.15625 -3.859375 C 26.550781 -2.566406 24.691406 -1.789062 22.578125 -1.53125 Z M 22.578125 -1.53125 "/></g></g></g><g fill="#0b0019" fill-opacity="1"><g transform="translate(130.392028, 246.350535)"><g><path d="M 37.734375 -4.765625 C 36.960938 -4.660156 35.890625 -4.707031 34.515625 -4.90625 C 33.140625 -5.101562 32.066406 -6.351562 31.296875 -8.65625 C 30.929688 -9.789062 30.84375 -11.390625 31.03125 -13.453125 C 31.226562 -15.742188 31.765625 -20.4375 32.640625 -27.53125 C 30.078125 -21.925781 28.125 -18.113281 26.78125 -16.09375 C 25.4375 -14.082031 24.15625 -12.691406 22.9375 -11.921875 C 22.207031 -11.492188 21.414062 -11.222656 20.5625 -11.109375 C 20.125 -11.054688 19.457031 -11.054688 18.5625 -11.109375 C 17.664062 -11.171875 16.703125 -11.78125 15.671875 -12.9375 C 15.015625 -13.90625 14.398438 -15.316406 13.828125 -17.171875 C 13.429688 -18.359375 13.0625 -19.660156 12.71875 -21.078125 C 12.425781 -22.253906 11.726562 -24.707031 10.625 -28.4375 C 10.195312 -24.132812 9.898438 -21.078125 9.734375 -19.265625 C 8.816406 -11.804688 8.765625 -6.710938 9.578125 -3.984375 C 9.859375 -3.035156 10.101562 -2.4375 10.3125 -2.1875 C 9.03125 -1.445312 7.628906 -0.984375 6.109375 -0.796875 C 5.335938 -0.703125 4.265625 -0.753906 2.890625 -0.953125 C 1.515625 -1.148438 0.445312 -2.394531 -0.3125 -4.6875 C -0.644531 -5.863281 -0.722656 -7.535156 -0.546875 -9.703125 C -0.378906 -11.878906 -0.128906 -14.359375 0.203125 -17.140625 C 0.773438 -21.171875 1.175781 -25.421875 1.40625 -29.890625 C 1.632812 -34.359375 1.316406 -38.3125 0.453125 -41.75 C 3.734375 -41.96875 6.425781 -41.582031 8.53125 -40.59375 L 8.6875 -40.515625 C 10.539062 -39.367188 12.046875 -37.78125 13.203125 -35.75 C 14.367188 -33.726562 15.3125 -31.550781 16.03125 -29.21875 C 16.0625 -29.132812 16.273438 -28.429688 16.671875 -27.109375 C 17.066406 -25.796875 17.523438 -23.9375 18.046875 -21.53125 L 18.859375 -18.125 C 21.597656 -21.4375 23.878906 -24.976562 25.703125 -28.75 C 27.535156 -32.519531 29.015625 -36.066406 30.140625 -39.390625 C 31.265625 -42.710938 31.835938 -44.8125 31.859375 -45.6875 C 33.109375 -45.78125 34.476562 -45.75 35.96875 -45.59375 C 37.457031 -45.4375 38.671875 -45.164062 39.609375 -44.78125 C 40.546875 -44.40625 41.070312 -44.019531 41.1875 -43.625 C 42.019531 -40.820312 42.363281 -37.644531 42.21875 -34.09375 C 42.070312 -30.539062 41.773438 -26.960938 41.328125 -23.359375 C 40.410156 -15.828125 40.359375 -10.675781 41.171875 -7.90625 C 41.453125 -6.988281 41.695312 -6.398438 41.90625 -6.140625 C 40.644531 -5.410156 39.253906 -4.953125 37.734375 -4.765625 Z M 37.734375 -4.765625 "/></g></g></g><g fill="#0b0019" fill-opacity="1"><g transform="translate(172.419573, 241.083935)"><g><path d="M 27.625 -3.46875 C 26.851562 -3.363281 25.785156 -3.410156 24.421875 -3.609375 C 23.054688 -3.816406 21.992188 -5.078125 21.234375 -7.390625 C 20.992188 -8.140625 20.804688 -10.164062 20.671875 -13.46875 C 18.804688 -9 17.195312 -5.957031 15.84375 -4.34375 C 14.382812 -2.6875 12.6875 -1.734375 10.75 -1.484375 C 8.675781 -1.222656 6.796875 -1.566406 5.109375 -2.515625 C 3.429688 -3.472656 2.097656 -4.957031 1.109375 -6.96875 C 0.722656 -7.71875 0.40625 -8.515625 0.15625 -9.359375 C -0.289062 -10.804688 -0.554688 -12.40625 -0.640625 -14.15625 C -0.691406 -16.9375 -0.164062 -19.59375 0.9375 -22.125 C 2.050781 -24.65625 3.644531 -26.800781 5.71875 -28.5625 C 7.789062 -30.320312 10.238281 -31.378906 13.0625 -31.734375 C 14.726562 -31.941406 16.203125 -31.851562 17.484375 -31.46875 C 18.765625 -31.09375 20.320312 -29.75 22.15625 -27.4375 C 22.164062 -30.414062 22.085938 -32.234375 21.921875 -32.890625 C 23.835938 -33.035156 25.664062 -32.921875 27.40625 -32.546875 C 29.15625 -32.179688 30.242188 -31.632812 30.671875 -30.90625 C 30.835938 -30.613281 30.96875 -30.289062 31.0625 -29.9375 C 31.394531 -28.894531 31.53125 -27.519531 31.46875 -25.8125 C 31.414062 -24.113281 31.238281 -22.097656 30.9375 -19.765625 C 30.519531 -16.859375 30.3125 -14.054688 30.3125 -11.359375 C 30.300781 -9.816406 30.488281 -8.410156 30.875 -7.140625 C 31.207031 -6.054688 31.53125 -5.300781 31.84375 -4.875 C 30.539062 -4.125 29.132812 -3.65625 27.625 -3.46875 Z M 13.65625 -8.703125 C 14.800781 -8.847656 15.859375 -9.628906 16.828125 -11.046875 C 17.796875 -12.472656 18.660156 -14.195312 19.421875 -16.21875 C 20.179688 -18.238281 20.796875 -20.375 21.265625 -22.625 C 21.367188 -23.488281 21.335938 -24.234375 21.171875 -24.859375 C 20.972656 -25.523438 20.476562 -26.171875 19.6875 -26.796875 C 18.90625 -27.421875 17.582031 -27.613281 15.71875 -27.375 C 14.019531 -27.125 12.625 -26.394531 11.53125 -25.1875 C 10.4375 -23.976562 9.625 -22.597656 9.09375 -21.046875 C 8.1875 -18.234375 8.125 -15.523438 8.90625 -12.921875 C 8.90625 -12.859375 9.007812 -12.503906 9.21875 -11.859375 C 9.425781 -11.222656 9.929688 -10.503906 10.734375 -9.703125 C 11.546875 -8.898438 12.519531 -8.566406 13.65625 -8.703125 Z M 13.65625 -8.703125 "/></g></g></g><g fill="#0b0019" fill-opacity="1"><g transform="translate(205.551845, 236.932029)"><g><path d="M 13.03125 -0.21875 C 10.894531 0.0507812 8.90625 -0.476562 7.0625 -1.8125 C 5.6875 -2.738281 4.679688 -4.191406 4.046875 -6.171875 C 3.609375 -7.753906 3.457031 -9.539062 3.59375 -11.53125 C 3.738281 -13.519531 4.015625 -15.675781 4.421875 -18 C 4.710938 -19.875 5.007812 -22.171875 5.3125 -24.890625 C 3.25 -24.628906 1.5 -24.328125 0.0625 -23.984375 C 0.0625 -23.984375 0.015625 -24.175781 -0.078125 -24.5625 C -0.140625 -24.75 -0.207031 -25.09375 -0.28125 -25.59375 C -0.351562 -26.09375 -0.203125 -26.710938 0.171875 -27.453125 C 0.546875 -28.191406 1.257812 -28.6875 2.3125 -28.9375 L 2.484375 -28.984375 C 3.398438 -29.148438 4.421875 -29.304688 5.546875 -29.453125 C 5.640625 -33.003906 5.300781 -36.257812 4.53125 -39.21875 C 6.507812 -39.363281 8.445312 -39.222656 10.34375 -38.796875 C 12.25 -38.367188 13.359375 -37.8125 13.671875 -37.125 C 14.296875 -35.070312 14.660156 -32.703125 14.765625 -30.015625 C 16.796875 -30.273438 18.554688 -30.632812 20.046875 -31.09375 C 20.234375 -30.894531 20.40625 -30.53125 20.5625 -30 C 21.164062 -28.09375 20.59375 -26.863281 18.84375 -26.3125 C 17.457031 -25.976562 16.003906 -25.71875 14.484375 -25.53125 C 14.265625 -23.6875 14.050781 -22.046875 13.84375 -20.609375 C 13.4375 -18.242188 13.179688 -16.023438 13.078125 -13.953125 C 12.984375 -12.046875 13.175781 -10.289062 13.65625 -8.6875 C 14.175781 -7 15.097656 -6.007812 16.421875 -5.71875 C 17.003906 -5.550781 17.609375 -5.503906 18.234375 -5.578125 C 18.578125 -5.628906 19.085938 -5.769531 19.765625 -6 C 20.441406 -6.226562 20.984375 -6.550781 21.390625 -6.96875 L 21.21875 -6.9375 C 21.082031 -6.925781 20.988281 -6.9375 20.9375 -6.96875 C 20.894531 -7 20.890625 -6.988281 20.921875 -6.9375 C 20.921875 -6.894531 20.929688 -6.785156 20.953125 -6.609375 C 20.984375 -6.429688 20.941406 -6.078125 20.828125 -5.546875 C 20.472656 -4.328125 19.78125 -3.316406 18.75 -2.515625 C 17.101562 -1.253906 15.195312 -0.488281 13.03125 -0.21875 Z M 13.03125 -0.21875 "/></g></g></g><g fill="#0b0019" fill-opacity="1"><g transform="translate(230.631855, 233.789177)"><g><path d="M 14.4375 -1.984375 C 11.53125 -1.617188 8.957031 -1.875 6.71875 -2.75 C 4.476562 -3.625 2.710938 -5.050781 1.421875 -7.03125 C 0.804688 -7.976562 0.328125 -9.019531 -0.015625 -10.15625 C -0.390625 -11.382812 -0.601562 -12.71875 -0.65625 -14.15625 C -0.71875 -16.238281 -0.421875 -18.273438 0.234375 -20.265625 C 0.890625 -22.253906 1.882812 -24.066406 3.21875 -25.703125 C 4.550781 -27.347656 6.207031 -28.722656 8.1875 -29.828125 C 10.175781 -30.929688 12.457031 -31.644531 15.03125 -31.96875 L 15.578125 -32.046875 C 17.796875 -32.316406 19.789062 -32.097656 21.5625 -31.390625 C 23.34375 -30.691406 24.695312 -29.609375 25.625 -28.140625 C 25.9375 -27.640625 26.175781 -27.097656 26.34375 -26.515625 C 26.675781 -25.453125 26.75 -24.289062 26.5625 -23.03125 C 26.175781 -21.144531 25.125 -19.4375 23.40625 -17.90625 C 21.6875 -16.375 19.625 -15.117188 17.21875 -14.140625 C 15.113281 -13.296875 13.054688 -12.75 11.046875 -12.5 L 9.0625 -12.296875 C 10.269531 -10.453125 11.546875 -9.257812 12.890625 -8.71875 C 14.242188 -8.175781 15.8125 -8.015625 17.59375 -8.234375 C 19.78125 -8.554688 21.585938 -9.179688 23.015625 -10.109375 C 24.441406 -11.046875 25.535156 -12.023438 26.296875 -13.046875 C 26.191406 -13.066406 26.175781 -12.953125 26.25 -12.703125 C 26.28125 -12.609375 26.332031 -12.351562 26.40625 -11.9375 C 26.476562 -11.53125 26.316406 -10.8125 25.921875 -9.78125 C 25.523438 -8.75 24.878906 -7.691406 23.984375 -6.609375 C 23.085938 -5.535156 21.9375 -4.582031 20.53125 -3.75 C 19.132812 -2.925781 17.472656 -2.394531 15.546875 -2.15625 Z M 8.3125 -16.171875 C 11.613281 -16.972656 14.160156 -17.910156 15.953125 -18.984375 C 18.554688 -20.546875 19.519531 -22.445312 18.84375 -24.6875 C 18.25 -26.664062 16.820312 -27.515625 14.5625 -27.234375 C 13.019531 -26.953125 11.820312 -26.226562 10.96875 -25.0625 C 10.125 -23.894531 9.507812 -22.59375 9.125 -21.15625 C 8.738281 -19.726562 8.46875 -18.066406 8.3125 -16.171875 Z M 8.3125 -16.171875 "/></g></g></g></svg>